<mxfile host="app.diagrams.net" modified="2023-11-14T06:36:47.026Z" agent="Mozilla/5.0 (Windows NT 10.0; Win64; x64) AppleWebKit/537.36 (KHTML, like Gecko) Chrome/119.0.0.0 Safari/537.36" etag="naWWKSXdSUrWrxymY_JH" version="22.1.0" type="github">
  <diagram name="第 1 页" id="TzWWz40O_oC9c9V-L8uP">
    <mxGraphModel dx="724" dy="374" grid="1" gridSize="10" guides="1" tooltips="1" connect="1" arrows="1" fold="1" page="1" pageScale="1" pageWidth="827" pageHeight="1169" math="0" shadow="0">
      <root>
        <mxCell id="0" />
        <mxCell id="1" parent="0" />
        <mxCell id="l4R7JGsR5N1N8fzVmxWD-1" value="OutputStream" style="whiteSpace=wrap;html=1;align=center;" vertex="1" parent="1">
          <mxGeometry x="345" y="70" width="100" height="40" as="geometry" />
        </mxCell>
        <mxCell id="l4R7JGsR5N1N8fzVmxWD-2" value="输出流" style="text;html=1;strokeColor=none;fillColor=none;align=center;verticalAlign=middle;whiteSpace=wrap;rounded=0;" vertex="1" parent="1">
          <mxGeometry x="365" y="30" width="60" height="30" as="geometry" />
        </mxCell>
        <mxCell id="l4R7JGsR5N1N8fzVmxWD-3" value="FilterOutputStream" style="whiteSpace=wrap;html=1;align=center;" vertex="1" parent="1">
          <mxGeometry x="335" y="180" width="120" height="40" as="geometry" />
        </mxCell>
        <mxCell id="l4R7JGsR5N1N8fzVmxWD-5" value="OutputStream" style="whiteSpace=wrap;html=1;align=center;" vertex="1" parent="1">
          <mxGeometry x="575" y="180" width="100" height="40" as="geometry" />
        </mxCell>
        <mxCell id="l4R7JGsR5N1N8fzVmxWD-8" value="Extends" style="endArrow=block;endSize=16;endFill=0;html=1;rounded=0;exitX=0.5;exitY=0;exitDx=0;exitDy=0;entryX=0.5;entryY=1;entryDx=0;entryDy=0;" edge="1" parent="1" source="l4R7JGsR5N1N8fzVmxWD-3" target="l4R7JGsR5N1N8fzVmxWD-1">
          <mxGeometry width="160" relative="1" as="geometry">
            <mxPoint x="455" y="110" as="sourcePoint" />
            <mxPoint x="615" y="110" as="targetPoint" />
          </mxGeometry>
        </mxCell>
        <mxCell id="l4R7JGsR5N1N8fzVmxWD-13" value="1" style="endArrow=open;html=1;endSize=12;startArrow=diamondThin;startSize=14;startFill=0;edgeStyle=orthogonalEdgeStyle;align=left;verticalAlign=bottom;rounded=0;entryX=0;entryY=0.5;entryDx=0;entryDy=0;exitX=1;exitY=0.5;exitDx=0;exitDy=0;" edge="1" parent="1" source="l4R7JGsR5N1N8fzVmxWD-3" target="l4R7JGsR5N1N8fzVmxWD-5">
          <mxGeometry x="-1" y="3" relative="1" as="geometry">
            <mxPoint x="455" y="110" as="sourcePoint" />
            <mxPoint x="615" y="110" as="targetPoint" />
          </mxGeometry>
        </mxCell>
        <mxCell id="l4R7JGsR5N1N8fzVmxWD-14" value="PrintStream" style="whiteSpace=wrap;html=1;align=center;" vertex="1" parent="1">
          <mxGeometry x="335" y="290" width="120" height="40" as="geometry" />
        </mxCell>
        <mxCell id="l4R7JGsR5N1N8fzVmxWD-16" value="Extends" style="endArrow=block;endSize=16;endFill=0;html=1;rounded=0;exitX=0.5;exitY=0;exitDx=0;exitDy=0;entryX=0.5;entryY=1;entryDx=0;entryDy=0;" edge="1" parent="1" source="l4R7JGsR5N1N8fzVmxWD-14" target="l4R7JGsR5N1N8fzVmxWD-3">
          <mxGeometry width="160" relative="1" as="geometry">
            <mxPoint x="325" y="430" as="sourcePoint" />
            <mxPoint x="395" y="230" as="targetPoint" />
          </mxGeometry>
        </mxCell>
        <mxCell id="l4R7JGsR5N1N8fzVmxWD-17" value="BufferedWriter" style="whiteSpace=wrap;html=1;align=center;" vertex="1" parent="1">
          <mxGeometry x="240" y="400" width="120" height="40" as="geometry" />
        </mxCell>
        <mxCell id="l4R7JGsR5N1N8fzVmxWD-18" value="OutputStreamWriter" style="whiteSpace=wrap;html=1;align=center;" vertex="1" parent="1">
          <mxGeometry x="415" y="400" width="120" height="40" as="geometry" />
        </mxCell>
        <mxCell id="l4R7JGsR5N1N8fzVmxWD-19" value="" style="endArrow=open;html=1;endSize=12;startArrow=diamondThin;startSize=14;startFill=0;edgeStyle=orthogonalEdgeStyle;align=left;verticalAlign=bottom;rounded=0;entryX=0.5;entryY=0;entryDx=0;entryDy=0;exitX=0;exitY=0.5;exitDx=0;exitDy=0;" edge="1" parent="1" source="l4R7JGsR5N1N8fzVmxWD-14" target="l4R7JGsR5N1N8fzVmxWD-17">
          <mxGeometry x="-1" y="3" relative="1" as="geometry">
            <mxPoint x="322" y="310" as="sourcePoint" />
            <mxPoint x="302" y="400" as="targetPoint" />
          </mxGeometry>
        </mxCell>
        <mxCell id="l4R7JGsR5N1N8fzVmxWD-20" value="1" style="endArrow=open;html=1;endSize=12;startArrow=diamondThin;startSize=14;startFill=0;edgeStyle=orthogonalEdgeStyle;align=left;verticalAlign=bottom;rounded=0;entryX=0.5;entryY=0;entryDx=0;entryDy=0;exitX=1;exitY=0.5;exitDx=0;exitDy=0;" edge="1" parent="1" source="l4R7JGsR5N1N8fzVmxWD-14" target="l4R7JGsR5N1N8fzVmxWD-18">
          <mxGeometry x="-1" y="3" relative="1" as="geometry">
            <mxPoint x="385" y="270" as="sourcePoint" />
            <mxPoint x="545" y="270" as="targetPoint" />
          </mxGeometry>
        </mxCell>
        <mxCell id="l4R7JGsR5N1N8fzVmxWD-21" value="1" style="text;html=1;strokeColor=none;fillColor=none;align=center;verticalAlign=middle;whiteSpace=wrap;rounded=0;" vertex="1" parent="1">
          <mxGeometry x="305" y="290" width="20" height="20" as="geometry" />
        </mxCell>
        <mxCell id="l4R7JGsR5N1N8fzVmxWD-22" value="Writer" style="whiteSpace=wrap;html=1;align=center;" vertex="1" parent="1">
          <mxGeometry x="40" y="400" width="100" height="40" as="geometry" />
        </mxCell>
        <mxCell id="l4R7JGsR5N1N8fzVmxWD-23" value="" style="endArrow=open;html=1;endSize=12;startArrow=diamondThin;startSize=14;startFill=0;edgeStyle=orthogonalEdgeStyle;align=left;verticalAlign=bottom;rounded=0;entryX=1;entryY=0.5;entryDx=0;entryDy=0;exitX=0;exitY=0.5;exitDx=0;exitDy=0;" edge="1" parent="1" source="l4R7JGsR5N1N8fzVmxWD-17" target="l4R7JGsR5N1N8fzVmxWD-22">
          <mxGeometry x="-1" y="3" relative="1" as="geometry">
            <mxPoint x="220" y="360" as="sourcePoint" />
            <mxPoint x="430" y="310" as="targetPoint" />
          </mxGeometry>
        </mxCell>
        <mxCell id="l4R7JGsR5N1N8fzVmxWD-24" value="1" style="text;html=1;align=center;verticalAlign=middle;resizable=0;points=[];autosize=1;strokeColor=none;fillColor=none;" vertex="1" parent="1">
          <mxGeometry x="210" y="390" width="30" height="30" as="geometry" />
        </mxCell>
        <mxCell id="l4R7JGsR5N1N8fzVmxWD-25" value="Use" style="endArrow=open;endSize=12;dashed=1;html=1;rounded=0;exitX=1;exitY=0.5;exitDx=0;exitDy=0;entryX=0.5;entryY=1;entryDx=0;entryDy=0;" edge="1" parent="1" source="l4R7JGsR5N1N8fzVmxWD-18" target="l4R7JGsR5N1N8fzVmxWD-5">
          <mxGeometry width="160" relative="1" as="geometry">
            <mxPoint x="560" y="404.65999999999997" as="sourcePoint" />
            <mxPoint x="720" y="404.65999999999997" as="targetPoint" />
          </mxGeometry>
        </mxCell>
      </root>
    </mxGraphModel>
  </diagram>
</mxfile>
